<?xml version="1.0" encoding="UTF-8" standalone="no"?>
<!-- Created with Inkscape (http://www.inkscape.org/) -->

<svg
   width="400"
   height="600"
   viewBox="0 0 105.83333 158.75"
   version="1.1"
   id="svg1"
   inkscape:version="1.3.2 (091e20e, 2023-11-25, custom)"
   sodipodi:docname="drawing.svg"
   xml:space="preserve"
   xmlns:inkscape="http://www.inkscape.org/namespaces/inkscape"
   xmlns:sodipodi="http://sodipodi.sourceforge.net/DTD/sodipodi-0.dtd"
   xmlns="http://www.w3.org/2000/svg"
   xmlns:svg="http://www.w3.org/2000/svg"><sodipodi:namedview
     id="namedview1"
     pagecolor="#ffffff"
     bordercolor="#111111"
     borderopacity="1"
     inkscape:showpageshadow="0"
     inkscape:pageopacity="0"
     inkscape:pagecheckerboard="1"
     inkscape:deskcolor="#d1d1d1"
     inkscape:document-units="mm"
     inkscape:zoom="4.4863356"
     inkscape:cx="174.30707"
     inkscape:cy="75.005535"
     inkscape:window-width="3840"
     inkscape:window-height="1494"
     inkscape:window-x="-11"
     inkscape:window-y="-11"
     inkscape:window-maximized="1"
     inkscape:current-layer="layer1"
     showgrid="true"><inkscape:grid
       id="grid1"
       units="px"
       originx="0"
       originy="0"
       spacingx="1.3229167"
       spacingy="1.3229167"
       empcolor="#0099e5"
       empopacity="0.30196078"
       color="#0099e5"
       opacity="0.14901961"
       empspacing="5"
       dotted="false"
       gridanglex="30"
       gridanglez="30"
       visible="true" /></sodipodi:namedview><defs
     id="defs1" /><g
     inkscape:label="Layer 1"
     inkscape:groupmode="layer"
     id="layer1"><rect
       style="fill:#ffffff;stroke:#000000;stroke-width:0.264583;stroke-linejoin:round;stroke-dasharray:none;stroke-opacity:1;fill-opacity:1"
       id="rect4"
       width="33.072918"
       height="13.229167"
       x="6.614584"
       y="6.614584"
       inkscape:export-filename="img_01.png"
       inkscape:export-xdpi="96"
       inkscape:export-ydpi="96" /><rect
       style="fill:#ffffff;stroke:#000000;stroke-width:0.264583;stroke-linejoin:round;stroke-dasharray:none;stroke-opacity:1;fill-opacity:1"
       id="rect5"
       width="33.072918"
       height="13.229167"
       x="6.614584"
       y="26.458334" /><path
       style="fill:#050505;stroke-width:0.999997"
       d="m 9.0105058,19.346151 c -0.08735,-0.04307 -0.1989712,-0.137442 -0.2480475,-0.20971 -0.083569,-0.123065 -0.090799,-0.387781 -0.11403,-4.174561 l -0.02481,-4.043165 -0.1122285,0.173634 c -0.332709,0.514746 -0.3671692,1.500399 -0.1047015,2.994821 0.115785,0.659253 0.095301,0.770974 -0.160809,0.877058 -0.180107,0.0746 -0.3695405,0.02723 -0.4632995,-0.115867 -0.14862,-0.226824 -0.3743902,-1.686757 -0.3743902,-2.420982 0,-0.497064 0.1191299,-1.165828 0.2673915,-1.501077 0.153396,-0.346855 0.4313382,-0.651286 0.7464522,-0.817592 l 0.251196,-0.1325716 h 1.3642567 c 1.330514,0 1.370031,0.0029 1.597639,0.1160196 0.444643,0.221044 0.771472,0.690659 0.937771,1.347456 0.09716,0.38374 0.08272,1.767761 -0.02486,2.38125 -0.151281,0.862795 -0.189147,0.993034 -0.318231,1.094573 -0.06716,0.05283 -0.171902,0.09605 -0.232755,0.09605 -0.13263,0 -0.35469,-0.164744 -0.395539,-0.293448 -0.01614,-0.05084 0.01639,-0.346046 0.07226,-0.65603 0.225849,-1.253014 0.223796,-2.24192 -0.0058,-2.775544 -0.247199,-0.574627 -0.241376,-0.661232 -0.24255,3.607327 -0.0011,3.749028 -0.0061,3.973311 -0.09292,4.164623 -0.09514,0.209483 -0.33271,0.368307 -0.550907,0.368307 -0.168599,0 -0.431119,-0.143303 -0.530397,-0.289528 -0.08297,-0.122212 -0.09079,-0.312184 -0.103931,-2.525804 -0.0139,-2.340952 -0.01635,-2.393652 -0.11162,-2.393652 -0.0954,0 -0.09743,0.04778 -0.0985,2.319237 -9e-4,2.149832 -0.0078,2.334009 -0.09293,2.52144 -0.148369,0.326671 -0.5051103,0.449785 -0.8337513,0.287734 z M 9.8382519,9.6054174 C 9.4119493,9.5282674 8.9913868,9.1270514 8.9160868,8.7256732 8.7463731,7.8210179 9.6552669,7.0855087 10.484867,7.4561624 c 0.50102,0.2238503 0.753345,0.683871 0.672137,1.225401 -0.08846,0.5899 -0.719873,1.032236 -1.3187521,0.923854 z"
       id="path4" /><path
       style="fill:#050505;stroke-width:0.999997"
       d="m 7.5053119,35.18057 c -0.223141,-0.22314 -0.230961,-0.405589 -0.02842,-0.663074 0.135625,-0.17242 0.207436,-0.19607 0.595313,-0.19607 0.499408,0 0.493614,0.01095 0.32057,-0.605779 -0.150848,-0.537619 -0.09354,-0.877453 0.205396,-1.217919 0.305367,-0.347794 0.655059,-0.428968 1.7122501,-0.397468 0.935016,0.02786 1.099046,0.08795 1.422399,0.521046 0.151549,0.202981 0.723392,2.001249 0.724027,2.276829 5.63e-4,0.231059 -0.254857,0.465088 -0.507538,0.465088 -0.274837,0 -0.486601,-0.241858 -0.60881,-0.695308 -0.09309,-0.345434 -0.106335,-0.358603 -0.31806,-0.316259 -0.121506,0.0243 -0.48051,0.04418 -0.797788,0.04418 H 9.6477809 l 0.03652,0.324081 c 0.03044,0.270033 0.008,0.350698 -0.134793,0.483691 -0.154329,0.143779 -0.25515,0.159611 -1.016435,0.159611 -0.798062,0 -0.855283,-0.01017 -1.027766,-0.182654 z m 4.8210141,-2.495852 c -0.726862,-0.443173 -0.726862,-1.566811 0,-2.009984 0.324434,-0.197808 0.904759,-0.197808 1.229193,0 0.707484,0.431358 0.721507,1.524547 0.02548,1.989496 -0.330261,0.220629 -0.910908,0.23011 -1.254713,0.02049 z"
       id="path3" /><text
       xml:space="preserve"
       style="font-weight:300;font-size:5.29167px;line-height:0.9;font-family:'Source Sans Pro';-inkscape-font-specification:'Source Sans Pro, Light';fill:#000000;fill-opacity:1;stroke:none;stroke-width:0.264583;stroke-linejoin:round;stroke-dasharray:none;stroke-opacity:1"
       x="14.038793"
       y="11.752793"
       id="text4"><tspan
         sodipodi:role="line"
         id="tspan4"
         style="fill:#000000;fill-opacity:1;stroke:none;stroke-width:0.264583"
         x="14.038793"
         y="11.752793">Parent App</tspan></text><text
       xml:space="preserve"
       style="font-weight:300;font-size:5.29167px;line-height:0.9;font-family:'Source Sans Pro';-inkscape-font-specification:'Source Sans Pro, Light';fill:#000000;fill-opacity:1;stroke:none;stroke-width:0.264583;stroke-linejoin:round;stroke-dasharray:none;stroke-opacity:1"
       x="15.58396"
       y="31.596548"
       id="text5"><tspan
         sodipodi:role="line"
         id="tspan5"
         style="fill:#000000;fill-opacity:1;stroke:none;stroke-width:0.264583"
         x="15.58396"
         y="31.596548">Child App</tspan></text><path
       style="fill:none;fill-opacity:1;stroke:#000000;stroke-width:0.26458333;stroke-linejoin:round;stroke-dasharray:none;stroke-opacity:1;stroke-linecap:round"
       d="m 22.489585,21.166668 v 3.96875"
       id="path5" /><path
       style="fill:none;fill-opacity:1;stroke:#000000;stroke-width:0.264583;stroke-linecap:round;stroke-linejoin:round;stroke-dasharray:none;stroke-opacity:1"
       d="m 21.166668,23.812501 1.322917,1.322917 1.322917,-1.322917"
       id="path6" /></g></svg>
